<svg aria-label="Invitae" fill="none" height="34" viewBox="145 0 135 34" width="135" xmlns="http://www.w3.org/2000/svg"><title>Invitae</title><clipPath id="a"><path d="m0 0h280v33.57h-280z"></path></clipPath><g clip-path="url(#a)"><path d="m137.545.140625v32.630375" stroke="#414c6a" stroke-miterlimit="10" stroke-width=".187542"></path><g fill="#414c6a"><path d="m39.4813 4.82544h3.4564v18.42036h-3.4564z"></path><path d="m50.6832 23.5233c-3.734 0-6.232-3.0532-6.232-6.5865s2.498-6.5865 6.232-6.5865c1.3634 0 2.498.4801 3.2295 1.1853v-.9077h3.4564v12.6159h-3.4564v-.9339c-.7315.7314-1.868 1.2115-3.2295 1.2115zm.5045-3.1545c1.3371 0 2.1455-.5795 2.725-1.3878v-4.1128c-.5795-.782-1.3879-1.3634-2.725-1.3634-1.8679 0-3.1545 1.5641-3.1545 3.432s1.2866 3.432 3.1545 3.432z"></path><path d="m66.1554 23.5234c-1.3372 0-2.498-.4801-3.2295-1.2116v.934h-3.4564v-18.42036h3.4564v6.71216c.7315-.7071 1.8923-1.1853 3.2295-1.1853 3.734 0 6.232 3.0532 6.232 6.5865s-2.498 6.5864-6.232 6.5864zm-.5045-3.1545c1.8923 0 3.1789-1.5641 3.1789-3.432s-1.2866-3.432-3.1789-3.432c-1.3372 0-2.1455.5814-2.725 1.3634v4.1128c.5795.8083 1.3878 1.3878 2.725 1.3878z"></path><path d="m80.206 23.5233c-3.7339 0-6.6859-2.7756-6.6859-6.5865 0-3.8108 2.952-6.5865 6.6859-6.5865 2.6237 0 4.8949 1.4629 5.9807 3.6327l-3.0025 1.6148c-.5045-1.1609-1.5904-2.018-2.9782-2.018-1.8173 0-3.2051 1.4122-3.2051 3.3551 0 1.943 1.3878 3.3552 3.2051 3.3552 1.3878 0 2.4737-.8571 2.9782-2.018l3.0025 1.6147c-1.0858 2.1699-3.3551 3.6327-5.9807 3.6327z"></path><path d="m93.5271 23.5233c-3.6589 0-6.6352-2.9013-6.6352-6.5865s2.9782-6.5865 6.6352-6.5865c3.6571 0 6.6349 2.9013 6.6349 6.5865s-2.9778 6.5865-6.6349 6.5865zm0-3.2314c1.8173 0 3.1282-1.4122 3.1282-3.3551s-1.3128-3.3551-3.1282-3.3551-3.1544 1.4122-3.1544 3.3551 1.3372 3.3551 3.1544 3.3551z"></path><path d="m111.025 10.6279h3.456v.9077c.732-.707 1.892-1.1853 3.23-1.1853 3.734 0 6.232 3.0532 6.232 6.5865s-2.498 6.5865-6.232 6.5865c-1.338 0-2.498-.4801-3.23-1.2115v5.8288h-3.456zm6.183 9.7409c1.892 0 3.179-1.5641 3.179-3.432s-1.287-3.432-3.179-3.432c-1.337 0-2.145.5814-2.725 1.3634v4.1128c.58.8083 1.388 1.3878 2.725 1.3878z"></path><path d="m108.048 10.478c-1.312 0-2.498.7577-2.927 1.6654v-1.5135h-3.456v12.616h3.456v-7.8074c1.641-2.3818 4.39-1.4197 4.39-1.4197v-3.312c-.277-.1012-.832-.2269-1.463-.2269z"></path><path d="m168.593 8.1357-.248-.37321c-1.791-2.69685-6.305-4.86859-11.146-3.5858l-.433.1144-.229-.86644.434-.1144c4.602-1.2209 9.814.47823 12.122 3.95525l.248.37321-.747.49511z"></path><path d="m170.845 8.92321-.139-.42572c-.996-3.07943-4.758-6.38955-9.765-6.45894l-.448-.00563.013-.89645.448.00563c4.762.06564 9.321 3.10757 10.606 7.07783l.136.42572-.851.27569z"></path><path d="m172.803 10.2867-.017-.44825c-.129-3.2351-2.858-7.43604-7.661-8.853855l-.43-.127529.252-.857066.429.127528c4.567 1.346552 8.136 5.508102 8.303 9.677162l.017.44821-.895.0356z"></path><path d="m175.19 12.3365-.872-.2063.103-.4351c.749-3.14886-.746-7.93118-4.988-10.5924l-.379-.238175.476-.759545.379.238179c4.034 2.529941 6.35 7.497921 5.384 11.558241z"></path><path d="m176.066 14.7465-.784-.4351.218-.3919c1.57-2.83 1.421-7.83928-1.947-11.54511l-.302-.33195.662-.60201.302.33195c3.201 3.52391 4.09 8.93262 2.067 12.58222l-.218.3919z"></path><path d="m176.257 17.3025-.635-.6301.315-.3188c2.275-2.3012 3.482-7.16414 1.239-11.64264l-.2-.39946.801-.40134.2.40134c2.133 4.2572 1.531 9.7053-1.403 12.6722l-.315.3188z"></path><path d="m175.755 19.8177-.445-.7783.389-.2213c2.811-1.6016 5.286-5.9582 4.334-10.87558l-.085-.43885.88-.17066.084.43885c.904 4.67544-1.146 9.75784-4.769 11.82454z"></path><path d="m174.59 22.1019-.217-.8683.435-.1088c3.139-.7839 6.697-4.3116 7.108-9.3039l.037-.4464.893.0732-.038.4463c-.388 4.7467-3.736 9.0883-7.783 10.0991z"></path><path d="m173.519 24.0034c-.073 0-.144 0-.217-.0037l-.448-.0131.026-.8965.448.0131c3.228.0901 7.612-2.3442 9.353-7.0403l.155-.4201.841.3113-.156.4201c-1.626 4.3866-5.896 7.6274-10 7.6274z"></path><path d="m173.615 25.8357c-.866 0-1.714-.1181-2.515-.3694l-.428-.1332.267-.8552.427.1332c3.091.9602 7.963-.2044 10.908-4.2572l.262-.362.724.527-.262.362c-2.236 3.0776-5.949 4.9548-9.381 4.9548z"></path><path d="m173.729 27.6963c-1.879 0-3.683-.4614-5.146-1.4085l-.375-.2438.488-.752.375.2438c2.715 1.7591 7.723 1.9523 11.65-1.1572l.351-.2775.555.7033-.351.2775c-2.174 1.7198-4.93 2.6144-7.547 2.6144z"></path><path d="m173.795 29.5865c-3.07 0-6.035-1.1252-7.854-3.1882l-.297-.3357.672-.5926.296.3357c2.14 2.4268 6.909 3.9609 11.53 2.0292l.413-.1726.345.8271-.413.1725c-1.496.6264-3.107.9265-4.692.9265z"></path><path d="m173.403 31.4434c-4.257 0-8.407-2.2749-10.039-5.6525l-.195-.4033.806-.39.195.4032c1.407 2.9144 5.584 5.6787 10.555 5.0655l.445-.0544.11.8889-.444.0544c-.476.0582-.957.0863-1.433.0863z"></path><path d="m171.036 33.0319-.442-.0676c-4.709-.7107-8.813-4.3453-9.546-8.4525l-.079-.4407.882-.1575.078.4407c.569 3.1863 3.845 6.9747 8.798 7.7248l.442.0676-.135.8852z"></path><path d="m166.483 33.5531-.409-.1837c-4.344-1.9561-7.314-6.5621-6.911-10.7143l.043-.4464.891.0863-.043.4464c-.313 3.2201 1.821 7.7529 6.388 9.8103l.408.1838-.367.8158z"></path><path d="m161.956 32.8293-.344-.287c-3.653-3.055-5.271-8.2931-3.766-12.1827l.164-.4182.834.3226-.161.4182c-1.168 3.0157-.338 7.9574 3.505 11.1719l.343.2869-.575.6864z"></path><path d="m157.794 30.9108-.253-.3695c-2.693-3.929-2.84-9.409-.34-12.7454l.269-.3582.716.5364-.268.3582c-1.939 2.59-2.472 7.5692.36 11.7026l.253.3695-.739.5064z"></path><path d="m150.885 15.6128-.79-.4238.212-.3958c2.249-4.1971 7.05-6.84523 11.165-6.15883l.442.07314-.148.88332-.441-.07314c-3.193-.53262-7.861 1.28281-10.228 5.69751l-.212.3957z"></path><path d="m151.778 11.3464-.647-.6208.309-.3226c3.299-3.43574 8.634-4.68852 12.412-2.91812l.405.18941-.381.81019-.405-.18942c-2.931-1.37468-7.918-.8852-11.386 2.72684l-.309.3226z"></path><path d="m166.213 7.98745-.34-.29256c-2.451-2.1136-7.385-2.98754-11.7-.44448l-.385.22693-.456-.7708.387-.22692c4.101-2.41742 9.579-2.18674 12.739.53824l.34.29257-.585.6789z"></path><path d="m154.304 27.938-.145-.4238c-1.534-4.5085-.197-9.8253 3.112-12.3647l.354-.2738.546.7108-.356.272c-2.566 1.971-4.423 6.6239-2.81 11.3669l.145.4238-.848.2888z"></path><path d="m151.744 24.1347-.024-.4464c-.263-4.756 2.46-9.514 6.331-11.0668l.416-.1669.334.8308-.416.1669c-3.003 1.2059-6.047 5.1855-5.771 10.1873l.024.4482-.894.0488z"></path><path d="m151.179 19.977-.874-.1951.098-.437c1.031-4.6491 4.936-8.4956 9.083-8.9495l.444-.0487.098.8908-.447.0488c-3.216.3507-7.22 3.3626-8.304 8.2518l-.098.437z"></path><path d="m192.467 10.5906h-2.009v12.5803h2.009z"></path><path d="m234.277 10.5906h-2.008v12.5803h2.008z"></path><path d="m245.854 12.2822v10.9412h-1.956v-10.9412h-4.493v-1.6916h10.941v1.6916z"></path><path d="m269.006 23.2234v-12.6328h7.77v1.6916h-5.761v3.6477h4.756v1.6372h-4.756v3.9647h5.919v1.6916z"></path><path d="m278.312 11.0105c0-.1163.023-.2232.066-.3244.045-.1013.105-.1895.18-.2663.075-.0751.165-.1351.266-.1801s.21-.0656.325-.0656c.114 0 .223.0225.324.0656s.189.105.266.1801c.075.075.135.165.18.2663.045.1012.066.21.066.3244s-.023.2232-.066.3245c-.045.1012-.105.1894-.18.2663-.075.075-.165.135-.266.18s-.21.0656-.324.0656c-.115 0-.224-.0225-.325-.0656s-.189-.105-.266-.18c-.075-.0751-.135-.1651-.18-.2663-.045-.1013-.066-.2101-.066-.3245zm.122 0c0 .0994.019.1913.056.2794.038.0863.088.1632.154.227.064.0637.141.1162.227.1538.086.0375.18.0562.279.0562.1 0 .192-.0187.28-.0562.086-.0376.163-.0882.227-.1538.064-.0638.116-.1407.154-.227.037-.0862.056-.18.056-.2794s-.019-.1913-.056-.2794c-.038-.0863-.089-.1632-.154-.227-.064-.0637-.141-.1162-.227-.1537s-.18-.0563-.28-.0563c-.099 0-.191.0188-.279.0563-.086.0375-.163.0881-.227.1537-.064.0638-.116.1407-.154.227-.037.0862-.056.18-.056.2794zm.533.4782h-.122v-.9658h.371c.109 0 .188.0225.234.0694.047.045.07.1125.07.1988 0 .045-.006.0825-.019.1144s-.03.0581-.052.0806c-.023.0225-.049.0394-.077.0525-.03.0132-.06.0225-.094.0282l.289.4238h-.137l-.289-.4238h-.173v.4238zm0-.5307h.155c.034 0 .066 0 .1-.0038.033-.0018.062-.0093.088-.0206.026-.0112.047-.0281.064-.0487.016-.0225.024-.0526.024-.0938 0-.0319-.006-.0582-.019-.0769-.013-.0206-.03-.0356-.049-.0488-.02-.0112-.043-.0206-.069-.0262s-.052-.0075-.077-.0075h-.216v.3263z"></path><path d="m225.028 10.5906-3.436 8.7751c-.053.105-.105.2119-.159.4219-.053-.1594-.053-.2644-.16-.4219l-3.648-8.7751h-2.168l5.34 12.5803h1.058l5.284-12.5803h-2.113z"></path><path d="m254.522 23.2234 3.436-8.7751c.053-.105.105-.2644.16-.422.052.1594.052.2645.159.422l3.648 8.7751h2.168l-5.34-12.5803h-1.057l-5.285 12.5803h2.113z"></path><path d="m209.224 23.2234-7.136-8.9326c-.16-.1595-.529-.6339-.634-.9509v9.8853h-1.849v-12.5821h2.008l6.767 8.5106c.212.317.686.9509.845 1.3222v-9.831h1.797v12.5803h-1.797z"></path><path d="m16.6893 33.5532c-3.8239 0-7.5129-1.4009-10.52857-4.0265-3.48828-3.1038-5.646883-7.3385-6.0801048-11.9239-.4350972-4.5929.9170798-8.93265 3.8089748-12.21838 5.9357-6.57147 16.4587-7.21849 23.4634-1.44407 6.969 5.6225 7.9105 15.79285 2.1454 23.15395-2.7962 3.6608-6.7796 5.9282-11.215 6.3783-.5326.0543-1.0652.0806-1.5941.0806zm-.3919-32.921091c-4.4485 0-8.84075 1.749761-11.93519 5.176151-2.77187 3.14883-4.069662 7.31784-3.651444 11.73454.420094 4.4241 2.503684 8.5106 5.868184 11.5075 3.29699 2.8694 7.43225 4.216 11.64075 3.7902 4.259-.4332 8.0868-2.6105 10.778-6.1363 5.5512-7.0891 4.6529-16.87129-2.0423-22.27249h-.0019c-3.0926-2.5487-6.894-3.799601-10.6561-3.799601z"></path><path d="m19.0768 27.5856c-2.7982 0-5.4875-1.0165-7.6818-2.9257-5.33928-4.7542-6.10632-13.0173-1.68034-18.04526 4.40164-4.87234 12.20334-5.35244 17.39634-1.07274 5.1668 4.16906 5.8664 11.7101 1.5923 17.1676-2.0836 2.7268-5.1649 4.4841-8.4525 4.8179-.392.0394-.7858.06-1.1759.06zm-.1613-24.33358c-3.2539 0-6.4646 1.27903-8.7264 3.78459-4.19902 4.76919-3.45635 12.62349 1.626 17.14879 2.3631 2.0574 5.3375 3.0213 8.3738 2.7119 3.1132-.317 6.0351-1.9842 8.0136-4.576 4.0603-5.1856 3.4058-12.33841-1.4909-16.28804h-.0019c-2.2599-1.86604-5.0411-2.78124-7.7924-2.78124z"></path><path d="m20.6315 23.8835c-2.1699 0-4.261-.7952-5.9714-2.288-4.1184-3.6759-4.69228-9.8254-1.2809-13.70935 3.3645-3.73396 9.3283-4.10154 13.2967-.82519 3.9497 3.19384 4.486 8.97204 1.2191 13.15234-1.5848 2.0798-3.8447 3.3682-6.3615 3.6233-.3019.03-.602.045-.902.045zm-.2176-18.42602c-2.4455 0-4.8592.96397-6.5602 2.85064-3.1807 3.61958-2.6312 9.36768 1.2265 12.81098 1.8098 1.5791 4.0791 2.3218 6.3896 2.0873 2.3405-.2381 4.4428-1.4384 5.9225-3.3795 3.0532-3.9083 2.5619-9.2983-1.1177-12.2727h-.0019c-1.6991-1.40657-3.7921-2.09672-5.8588-2.09672z"></path></g></g></svg>